<mxfile host="app.diagrams.net" modified="2023-05-05T09:07:22.451Z" agent="Mozilla/5.0 (Windows NT 10.0; Win64; x64) AppleWebKit/537.36 (KHTML, like Gecko) Chrome/112.0.0.0 Safari/537.36" version="21.2.9" etag="4hYSGcUadU8JyPN1nId8" type="github">
  <diagram name="Страница 1" id="jts5OEDF_kBp1jsmf5Rq">
    <mxGraphModel>
      <root>
        <mxCell id="0" />
        <mxCell id="1" parent="0" />
      </root>
    </mxGraphModel>
  </diagram>
</mxfile>
